<svg width="96" height="96" viewBox="0 0 96 96" fill="none" xmlns="http://www.w3.org/2000/svg">
<rect width="96" height="95.9041" fill="#FFFDD4"/>
<g clip-path="url(#clip0_133_1296)">
<path d="M13.1992 39.9323C17.7513 29.468 25.3907 44.7012 28.4459 37.0859C33.03 27.946 28.4459 15.7595 31.5011 5.09491H39.1405C36.0853 18.8061 46.7799 43.1792 26.4805 47.3527C20.1906 47.3527 16.0536 44.9015 13.2019 39.9323H13.1992Z" fill="#5C4A2D"/>
<path d="M56.8899 5.37762C77.3498 1.83909 71.2498 32.4286 80.3998 46.1914C63.6235 49.2501 68.1998 24.7806 62.0998 12.5458C55.9998 23.2526 60.5735 49.2501 43.7998 46.1914C45.3261 40.074 48.3761 33.9567 50.4398 25.9708C53.6662 15.6742 56.8899 5.37762 56.8899 5.37762ZM52.4981 29.5174C59.0525 29.37 66.6788 27.8393 72.7788 29.37V37.018C66.6788 38.5487 59.0525 37.018 52.4981 36.758V29.5201V29.5174Z" fill="#5C4A2D"/>
<path d="M17.676 46.6326C20.8557 46.1539 25.4455 46.1539 25.4455 46.1539C28.5045 56.8351 23.9147 70.565 28.5045 79.7192C30.0353 81.2463 39.2123 78.1922 43.7994 79.7192V85.822C36.1506 88.8734 23.9147 90.4005 19.3275 85.822C16.2685 82.7706 17.7967 73.6164 17.676 67.1767C17.676 56.9046 17.676 46.6326 17.676 46.6326Z" fill="#5C4A2D"/>
<path d="M45.8994 69.0576C46.4363 61.7644 44.9062 54.1117 47.969 46.4562H54.0944C58.6899 57.1733 51.0317 70.9493 58.6899 80.1342C60.2226 81.6664 64.8153 81.6664 67.878 78.602C78.5989 67.885 55.6271 55.6385 78.5989 46.4536C77.0662 58.7001 83.1944 74.0083 74.0035 84.7253C66.3453 90.8486 57.1572 89.3191 50.1432 84.1779C47.357 80.9419 45.9021 75.9751 45.9021 69.0549L45.8994 69.0576Z" fill="#5C4A2D"/>
</g>
<defs>
<clipPath id="clip0_133_1296">
<rect width="75.273" height="93.9021" fill="white" transform="translate(5.09961 2.0979)"/>
</clipPath>
</defs>
</svg>
