<svg width="47" height="47" viewBox="0 0 47 47" fill="none" xmlns="http://www.w3.org/2000/svg">
<path d="M23.5 13.0556C21.4343 13.0556 19.415 13.6681 17.6974 14.8158C15.9798 15.9634 14.6411 17.5946 13.8506 19.5031C13.0601 21.4116 12.8532 23.5116 13.2562 25.5376C13.6592 27.5636 14.654 29.4247 16.1147 30.8853C17.5753 32.346 19.4364 33.3408 21.4624 33.7438C23.4884 34.1468 25.5884 33.9399 27.4969 33.1494C29.4054 32.3589 31.0366 31.0202 32.1842 29.3026C33.3319 27.585 33.9444 25.5657 33.9444 23.5C33.9416 20.7308 32.8402 18.0759 30.8822 16.1178C28.9241 14.1598 26.2692 13.0584 23.5 13.0556ZM23.5 28.7222C22.4671 28.7222 21.4575 28.4159 20.5987 27.8421C19.7399 27.2683 19.0706 26.4527 18.6753 25.4985C18.28 24.5442 18.1766 23.4942 18.3781 22.4812C18.5796 21.4682 19.077 20.5377 19.8073 19.8073C20.5377 19.077 21.4682 18.5796 22.4812 18.3781C23.4942 18.1766 24.5442 18.28 25.4985 18.6753C26.4527 19.0706 27.2683 19.7399 27.8421 20.5987C28.4159 21.4575 28.7222 22.4671 28.7222 23.5C28.7222 24.885 28.172 26.2133 27.1927 27.1927C26.2133 28.172 24.885 28.7222 23.5 28.7222ZM33.9444 0H13.0556C9.59424 0.00403115 6.27585 1.38082 3.82834 3.82834C1.38082 6.27585 0.00403115 9.59424 0 13.0556V33.9444C0.00403115 37.4058 1.38082 40.7241 3.82834 43.1717C6.27585 45.6192 9.59424 46.996 13.0556 47H33.9444C37.4058 46.996 40.7241 45.6192 43.1717 43.1717C45.6192 40.7241 46.996 37.4058 47 33.9444V13.0556C46.996 9.59424 45.6192 6.27585 43.1717 3.82834C40.7241 1.38082 37.4058 0.00403115 33.9444 0ZM41.7778 33.9444C41.7778 36.022 40.9525 38.0144 39.4834 39.4834C38.0144 40.9525 36.022 41.7778 33.9444 41.7778H13.0556C10.978 41.7778 8.98559 40.9525 7.51655 39.4834C6.04752 38.0144 5.22222 36.022 5.22222 33.9444V13.0556C5.22222 10.978 6.04752 8.98559 7.51655 7.51655C8.98559 6.04752 10.978 5.22222 13.0556 5.22222H33.9444C36.022 5.22222 38.0144 6.04752 39.4834 7.51655C40.9525 8.98559 41.7778 10.978 41.7778 13.0556V33.9444ZM38.2963 12.1852C38.2963 12.8738 38.0921 13.5469 37.7096 14.1194C37.327 14.6919 36.7833 15.1381 36.1471 15.4017C35.511 15.6652 34.811 15.7341 34.1356 15.5998C33.4603 15.4654 32.8399 15.1339 32.353 14.647C31.8661 14.1601 31.5346 13.5397 31.4002 12.8644C31.2659 12.189 31.3348 11.489 31.5983 10.8529C31.8619 10.2167 32.3081 9.67299 32.8806 9.29044C33.4531 8.90789 34.1262 8.7037 34.8148 8.7037C35.7382 8.7037 36.6237 9.0705 37.2766 9.72341C37.9295 10.3763 38.2963 11.2618 38.2963 12.1852Z" fill="#FFFDD4"/>
</svg>
