<svg id="Lag_1" data-name="Lag 1" xmlns="http://www.w3.org/2000/svg" viewBox="0 0 504.17 159.13">
  <path d="M0,130.47c17-39.19,45.53,17.86,56.94-10.66,17.12-34.23,0-79.87,11.41-119.81h28.53c-11.41,51.35,28.53,142.63-47.28,158.26-23.49,0-38.94-9.18-49.59-27.79Z"/>
  <path d="M162.95,1.79c76.54-13.2,53.72,100.91,87.95,152.25-62.76,11.41-45.64-79.87-68.46-125.51-22.82,39.94-5.71,136.92-68.46,125.51,5.71-22.82,17.12-45.64,24.84-75.43C150.89,40.2,162.95,1.79,162.95,1.79ZM146.52,91.84c24.52-.55,53.05-6.26,75.87-.55v28.53c-22.82,5.71-51.35,0-75.87-.97v-27Z"/>
  <path d="M267.57,1.79c11.86-1.79,28.98-1.79,28.98-1.79,11.41,39.94-5.71,91.28,11.41,125.51,5.71,5.71,39.94-5.71,57.05,0v22.82c-28.53,11.41-74.17,17.12-91.28,0-11.41-11.41-5.71-45.64-6.16-69.72,0-38.41,0-76.82,0-76.82Z"/>
  <path d="M380.12,84.23c2-27.18-3.7-55.7,7.71-84.23h22.82c17.12,39.94-11.41,91.28,17.12,125.51,5.71,5.71,22.82,5.71,34.23-5.71,39.94-39.94-45.64-85.58,39.94-119.81-5.71,45.64,17.12,102.69-17.12,142.63-28.53,22.82-62.76,17.12-88.89-2.04-10.38-12.06-15.8-30.57-15.8-56.36Z"/>
</svg>